/* XPM */
static char *noname[] = {
/* width height ncolors chars_per_pixel */
"32 32 54 1",
/* colors */
"  c #000000",
". c #8C71B1",
"X c #E7C59D",
"o c #7F5962",
"O c #ECC084",
"+ c #2E215B",
"@ c #624052",
"# c #52318B",
"$ c #4C307B",
"% c #674285",
"& c #7D5BAB",
"* c #432A72",
"= c #362279",
"- c #DAA15D",
"; c #362A7F",
": c #DD9A45",
"> c #7550A2",
", c #422C7D",
"< c #937CB2",
"1 c #623C78",
"2 c #7654A6",
"3 c #714CA1",
"4 c #AC8E92",
"5 c #6D489D",
"6 c #35297D",
"7 c #442E85",
"8 c #352876",
"9 c #28195C",
"0 c #482F82",
"q c #E0DBE2",
"w c #2A0B61",
"e c #CBB5B6",
"r c #372A7E",
"t c #ECE8EA",
"y c #2C1566",
"u c #2F1F58",
"i c #866289",
"p c #E4E0E8",
"a c #E2A758",
"s c #342563",
"d c #1C1052",
"f c #8C678B",
"g c #E9D6C5",
"h c #563403",
"j c #3E2A7D",
"k c #C89569",
"l c #D0AF9F",
"z c #573392",
"x c #99789A",
"c c #A88377",
"v c #5C3693",
"b c #D8AA7B",
"n c #805EA9",
"m c None",
/* pixels */
"      ee<eqxqe<<..n&>5vvz#7j==y ",
"      eee<qq4te<<<..n&2355vvz#$ ",
"      eeee<qeete<<..nn&235vvzz$ ",
"      qeee<<teep<<..n&2>55vvz#$ ",
"      pqeqe<4t<eq<.nn&2355vzz#$ ",
"      xteqq<<eq<tenn&2>35vvz##$ ",
"      <<t4qq<.eq<t<n22355vzz#7$ ",
"      <<ep4pe<.qe4p<2>55vvzz#7$ ",
"      <<<eq4pe.fqeepn35vvvz#77$ ",
"      <<<xqeep<n<t<ee35vvz##77* ",
"      .<<<fqeeq.><pxq4c:1##77j* ",
"      n<<<.fp4qe2iegOa::h+#77r* ",
"      &<<<.nxt<eelXtOa:::u77jr* ",
"      2.....><q<qttta::::u,7r6* ",
"      3...nn&%epx<lk:::::h8r66* ",
"      5nnnn&22%<tek::::::o9666* ",
"      v&n&22>35#ieO:::::::9666* ",
"      z2&22>3555#$o::::hhu9866* ",
"      73233555vvvv%ohhd988;666* ",
"      >nnnn>>5%%vz##s8rr;66666* ",
"OXOXXXXOOOOOOaaOhs777jr6666666* ",
"XXhhXOO:hah:::::h+77jr;;;;;;;6* ",
"Obhkhah:h:h:h:h:h+7rr8***ssssyy ",
"Obhah:h:hhh:h:h:h9r66s<e<<n3#=u ",
"O-hah:h:hhh:h:h:h9r66seqee<n=uu ",
"O:h:h:h::h::hhh:h9666s<qe<.0uu  ",
"O:hh::h::h::hh::h9666s<e<.*uu   ",
"ckkkkhhhhhhhhhhhh9666s.<.#uu    ",
"u@@@@@dddddddddd98666+>&*uu     ",
"      ==;;;;;;;;;66669%,uu      ",
"      ===============9wuu       ",
"      dsdddddddddddddddu        "
};
