/* XPM */
static char *noname[] = {
/* width height ncolors chars_per_pixel */
"32 32 165 2",
/* colors */
"   c #000000",
" . c #C1B6CE",
" X c #2E204B",
" o c #997FBE",
" O c #8566B1",
" + c #E0D9E9",
" @ c #704BA3",
" # c #DFDADE",
" $ c #F3AA32",
" % c #C0864C",
" & c #583788",
" * c #A692B0",
" = c #E9E6EB",
" - c #8C71B1",
" ; c #C2AF9D",
" : c #302267",
" > c #F4EEE5",
" , c #8F73B7",
" < c #895705",
" 1 c #D4A573",
" 2 c #E6E2EB",
" 3 c #BEB0D1",
" 4 c #1E1855",
" 5 c #C9B3AA",
" 6 c #4D308D",
" 7 c #261B56",
" 8 c #AA9CBD",
" 9 c #442C84",
" 0 c #312764",
" q c #412E81",
" w c #D6D0DE",
" e c #251862",
" r c #27195A",
" t c #462E89",
" y c #684286",
" u c #332169",
" i c #E3BE98",
" p c #7F5FAD",
" a c #9C6A59",
" s c #573393",
" d c #7D5BAB",
" f c #6A449F",
" g c #442A73",
" h c #432A72",
" j c #2E1F50",
" k c #4D2F89",
" l c #E2DFE6",
" z c #8E624B",
" x c #7253A0",
" c c #6A476D",
" v c #A290BB",
" b c #9D91AC",
" n c #734FA4",
" m c #7A5197",
" M c #FFA011",
" N c #CB9A6C",
" B c #60421A",
" V c #372A80",
" C c #362A7F",
" Z c #E8E4E8",
" A c #AD864B",
" S c #E2D2CB",
" D c #482F8A",
" F c #8364B0",
" G c #6E49A2",
" H c #A79EB2",
" J c #5A3495",
" K c #372658",
" L c #6C47A0",
" P c #9187A3",
" I c #ECE8EF",
" U c #DDAB7D",
" Y c #452D76",
" T c #F1C380",
" R c #B07B5E",
" E c #E39D44",
" W c #56318A",
" Q c #50308E",
" ! c #482B65",
" ~ c #7652A6",
" ^ c #392B81",
" / c #865A10",
" ( c #36297E",
" ) c #35297D",
" _ c #EDBB7F",
" ` c #AB95C9",
" ' c #8363AF",
" ] c #9488A5",
" [ c #402881",
" { c #3F2C83",
" } c #331B6A",
" | c #332460",
".  c #7C5BAB",
".. c #8E72B6",
".X c #FF9B02",
".o c #533190",
".O c #68429E",
".+ c #8C70B4",
".@ c #67409D",
".# c #EAC8A3",
".$ c #7957A8",
".% c #FFA719",
".& c #8973A7",
".* c #E2DDE7",
".= c #282241",
".- c #382A7F",
".; c #7D60A5",
".: c #8A5A09",
".> c #35287C",
"., c #D07E05",
".< c #3F157C",
".1 c #E4C6A0",
".2 c #BEADD4",
".3 c #9986B3",
".4 c #8568B0",
".5 c #734FA5",
".6 c #603899",
".7 c #FFD9A0",
".8 c #724DA4",
".9 c #372A81",
".0 c #DA9F4A",
".q c #2A1C5D",
".w c #7D5CAB",
".e c #6A459F",
".r c #553291",
".t c #28125E",
".y c #FFA618",
".u c #32206B",
".i c #1C1052",
".p c #805DA7",
".a c #71468B",
".s c #7754A8",
".d c #896BB3",
".f c #643D9C",
".g c #4F3184",
".h c #C0B7CB",
".j c #2D1E3E",
".k c #563403",
".l c #E1A250",
".z c #35297E",
".x c #DA9E49",
".c c #33277C",
".v c #352A74",
".b c #4E3186",
".n c #472A89",
".m c #957ABB",
".M c #4A3078",
".N c #ECEBEF",
".B c #917DAD",
".V c #7C597E",
".C c #F59B0A",
".Z c #9B83BA",
".A c #E1DFE4",
".S c #3D2C82",
".D c #4D4656",
".F c #2D1D65",
".G c #7B59AB",
".H c #7957A9",
".J c #7855A8",
".K c #352970",
".L c #5C3693",
".P c #362A7E",
".I c #35227D",
".U c #F8C16C",
".Y c None",
/* pixels */
"             . . 8.h.A P.A 3 o.m ,.d '.G.5 L.f J.o.n.<.<.<.< }  ",
"             . ..2 b w w H = `.Z o.m...d F.w.J.8.e.f.6 J.o Q.M  ",
"            .2.2.2.2 * # . H I ` o.m ,.+ O p.G ~ @.e.f.6 s.o.M  ",
"             +.2.2.2 8 b.N 8.h + o ,...d ' p.$ n G.O.6 J.r Q.M  ",
"             Z +.2 w ` v *.N b.h w.m.d O p.G ~ @ f.@.6 J.r 6.M  ",
"             P = . w w `.3 8 + P Z.2 O F.w.H n G.@.f J s Q 6.M  ",
"            .B b I H # w o.&.h w ] = ` p.H ~ @.e.f.6 s.r Q t.M  ",
"            .Z.3.h 2 H 2.2.m.& w.h H 2.m ~ n G.O.f.6 s.o D t.M  ",
"             o `.B.h # H 2 ` -.;.A 8 H.* ' G f.f.6 J.r Q D 9.M  ",
"            .m.Z v.& w . 8.*.m ' ] = ].h ..8.@.6 J s.o 6 t { Y  ",
"            .+ o o o.& w.h.h w.+ x ].* P # * R E c k 6 D 9.S g  ",
"             O o o.m -.& l H w ..$.;.h S T.U $.% B | 6 t { ^ h  ",
"            .w ,.m ,.. ' P = b ..2 5 i >.U $ $.y.,.j D 9 ^.P h  ",
"            .J.+ ,.+.d.d x b + ] # Z > >.U $.% M.,.j q {.- ) h  ",
"             @.4.d.d F p.w y H 2 P ] ; N $.%.y.X.C B.v.S ( ) h  ",
"            .O ' O F p d.H.s y ] I 8 % $ $.% M.X.X / e ( ) ) h  ",
"            .6 d p.w.H.J.5 @ L &.V.h T.% M M.X.X.C., r.c ) ) h  ",
"             J.s.G.H ~.5 G L.O.@ W.M z.C.X.C.,.: B.j.q.c ) ) h  ",
"            .n.8 ~.8 G G.O.f.6.6 J J & a B.k.i 4.u.> C ) ) ) h  ",
"             m.p.p.p.p m m.a.a.a.L.o Q.b.F.u.- C C ) ) ) ) ) h  ",
".7.7 _.7.7.7.7 T.U.U.U.U.U.U.U.U B u D t 9.S.- ) ) ) ) ) ) ) h  ",
".7.1.k.k.#.7 T.0.k $.k.% M.X.X.% B | t {.S.- C C C C C C C.z g  ",
" T U.k N.k.l.k $.k.,.k.C.k.,.k.% B.q { ^ (.K h h.K.K 0 : |.F }  ",
" T 1.k.U.k.x.k.%.k.:.k.,.k.,.k.y B.q ^ (.c : b 8 v.B.; x &.< j  ",
".U.0.k.U.k.,.k M.k.k.k.,.k.,.k M B 7.P ).c.K 3 + ..2.Z p.< j.=  ",
".U.x.k E.k.,.k.X.,.k.X.,.k.:.k M B 7.z ).c.K 8 ..2 `.+ k X X    ",
".U E.k.k.%.:.k.X.,.k.X.X.k.k., M B 7.z ).c.F.3 ` ` , g X.=      ",
" A A A A A.k.k / / / / < < < <.:.k 7.z ).c.F.& v...g X X        ",
".=.D.D.D.D.D.i.i 4 4 4 4 4 4 4 4 7.K.z ).>.F x.  g X.=          ",
"            .<.I.9.9.9.9.9.9.9.9 V ( ) ).>.q & [ X X            ",
"            .<.I.I.I.I.I.I.I.I.I.I.I.I.I.I.q.t X.=              ",
"            .j !.i.i.i.i.i.i.i.i.i.i.i.i.i.i.= K                "
};
