/* XPM */
static char *djvulibre-djview3[] = {
/* columns rows colors chars-per-pixel */
"32 32 257 2",
"   c black",
".  c #1F0D3A",
"X  c #311F0E",
"o  c #3F2719",
"O  c #28223F",
"+  c #352837",
"@  c #190D4A",
"#  c #1E0954",
"$  c #1A1240",
"%  c #1C1052",
"&  c #1E1855",
"*  c #2D0F5B",
"=  c #2D1F4B",
"-  c #271B42",
";  c #20175A",
":  c #201856",
">  c #241B58",
",  c #2E1B51",
"<  c #291D5C",
"1  c #331E5F",
"2  c #291C64",
"3  c #380F77",
"4  c #311F60",
"5  c #381767",
"6  c #35187C",
"7  c #282241",
"8  c #2D224A",
"9  c #2E2848",
"0  c #3F2D5E",
"q  c #373049",
"w  c #2D2162",
"e  c #332465",
"r  c #31246C",
"t  c #34296B",
"y  c #3A2F6D",
"u  c #322572",
"i  c #34237C",
"p  c #35297D",
"a  c #38297E",
"s  c #3C316F",
"d  c #3E3270",
"f  c #4E3003",
"g  c #563403",
"h  c #5F3E12",
"j  c #412B3E",
"k  c #673F14",
"l  c #613D25",
"z  c #421B7C",
"x  c #46217B",
"c  c #432A72",
"v  c #462377",
"b  c #4B3078",
"n  c #513878",
"m  c #60421A",
"M  c #71471D",
"N  c #614322",
"B  c #4D4656",
"V  c #68426D",
"C  c #380780",
"Z  c #371D80",
"A  c #372A80",
"S  c #3C2B82",
"D  c #451689",
"F  c #46198A",
"G  c #422D85",
"H  c #452E89",
"J  c #4E2886",
"K  c #492E8A",
"L  c #4D228C",
"P  c #4D308D",
"I  c #512D86",
"U  c #502B8D",
"Y  c #552B92",
"T  c #563587",
"R  c #52318D",
"E  c #5C3D86",
"W  c #5D3B8D",
"Q  c #543191",
"!  c #5A3395",
"~  c #5E3698",
"^  c #5F3898",
"/  c #603798",
"(  c #633B9B",
")  c #64488C",
"_  c #69429E",
"`  c #6E5499",
"'  c #72468B",
"]  c #764C96",
"[  c #74589B",
"{  c #7A5197",
"}  c #7F599E",
"|  c #6B46A0",
" . c #6E49A1",
".. c #714DA4",
"X. c #7552A6",
"o. c #7754A8",
"O. c #7856A8",
"+. c #7C5BAB",
"@. c #71608B",
"#. c #7C6897",
"$. c #7F66A3",
"%. c #895705",
"&. c #885909",
"*. c #865A10",
"=. c #9F620E",
"-. c #96621B",
";. c #A76607",
":. c #B26B01",
">. c #B16E0D",
",. c #BB750D",
"<. c #826255",
"1. c #A06C48",
"2. c #B37664",
"3. c #CA7B01",
"4. c #D07E05",
"5. c #825DA2",
"6. c #805FAD",
"7. c #837499",
"8. c #8A7D9D",
"9. c #827397",
"0. c #8162AD",
"q. c #876EAA",
"w. c #8465B0",
"e. c #896BB3",
"r. c #8769B2",
"t. c #8974A8",
"y. c #8D71B5",
"u. c #917DAD",
"i. c #9276B9",
"p. c #957ABB",
"a. c #987EBD",
"s. c #AD864B",
"d. c #AD8A56",
"f. c #CE861C",
"g. c #D48305",
"h. c #D98D1C",
"j. c #CE8A23",
"k. c #CF933A",
"l. c #DA8F39",
"z. c #DC9B3A",
"x. c #E48900",
"c. c #EF9308",
"v. c #EE9B13",
"b. c #F29502",
"n. c #FE9A02",
"m. c #FF9D0A",
"M. c #FFA005",
"N. c #FEA40E",
"B. c #FFA212",
"V. c #FDA41C",
"C. c #FFA915",
"Z. c #FFAA19",
"A. c #FFA722",
"S. c #FFAA27",
"D. c #FFAA29",
"F. c #F0A52F",
"G. c #FBAD35",
"H. c #F8AE3C",
"J. c #FFB139",
"K. c #C18B53",
"L. c #D19B49",
"P. c #D29E50",
"I. c #C59E65",
"U. c #D6A04F",
"Y. c #D0AF7E",
"T. c #D0AA71",
"R. c #FFB647",
"E. c #FDBD5B",
"W. c #F5B454",
"Q. c #F7BD67",
"!. c #FFC162",
"~. c #FEC36A",
"^. c #FCC572",
"/. c #FFC978",
"(. c #F2C079",
"). c #8E849D",
"_. c #8B8391",
"`. c #9386A5",
"'. c #9485AB",
"]. c #9488A4",
"[. c #988DA8",
"{. c #988EA4",
"}. c #9685B0",
"|. c #9A80BE",
" X c #9D92AB",
".X c #9D92B0",
"XX c #A18CBD",
"oX c #A096AF",
"OX c #A39BAD",
"+X c #A89EB5",
"@X c #AA9DBC",
"#X c #A194B4",
"$X c #B792A3",
"%X c #ABA5B5",
"&X c #AEA8B8",
"*X c #ADA2BD",
"=X c #BBADA0",
"-X c #B2ADBB",
";X c #B6B3B7",
":X c #9E85C1",
">X c #A18AC2",
",X c #A790C7",
"<X c #AA94C8",
"1X c #AB99C4",
"2X c #B19CCC",
"3X c #B3A8C3",
"4X c #B6A7C9",
"5X c #B7A4D0",
"6X c #BCABD3",
"7X c #BCB7C2",
"8X c #BCB2CA",
"9X c #BFBCC3",
"0X c #CDAEAB",
"qX c #C1B7CF",
"wX c #C2BCC9",
"eX c #C1B2D6",
"rX c #C5B6D9",
"tX c #C9BCDD",
"yX c #C7BBD7",
"uX c #E8C185",
"iX c #E2C598",
"pX c #FBCB83",
"aX c #FECF88",
"sX c #F3C88C",
"dX c #F0CA93",
"fX c #FFD28E",
"gX c #F7D197",
"hX c #FFD89C",
"jX c #FFD492",
"kX c #E1C8A3",
"lX c #FFD9A0",
"zX c #C6C1C9",
"xX c #CAC6CE",
"cX c #D2CED6",
"vX c #D4CFDA",
"bX c #D4D1D8",
"nX c #D8D7DA",
"mX c #DBD9DE",
"MX c #D3D0D5",
"NX c #D1C4E1",
"BX c #D6CBE5",
"VX c #DAD3E2",
"CX c #DBD2E8",
"ZX c #DEDAE3",
"AX c #E1D6CE",
"SX c #E5DAD5",
"DX c #E0DDE3",
"FX c #E2DCEA",
"GX c #FFEED2",
"HX c #E6E3EB",
"JX c #E8E5EB",
"KX c #EAE8ED",
"LX c #E8E3E4",
"PX c #EEEBF1",
"IX c #F2EEEA",
"UX c #F3F0E9",
"YX c None",
/* pixels */
"YXYXYXYXYXYXrXeX@X7XDX_.DX8Xa.p.y.e.6.+...| ( / Y F F D D D * YX",
"YXYXYXYXYXYXrXrX6X XnXMXOXJX2X:Xa.p.y.r.w.6.o..._ _ / ! Y U n YX",
"YXYXYXYXYXYX6X6X6X6XoXmXqX-XPX2Xa.p.i.e.w.6.+.X..._ ( / ! Q b YX",
"YXYXYXYXYXYXCXeX5X5X1X XPX*XwXFXa.i.y.e.0.6.o..._ _ ( / Q Q b YX",
"YXYXYXYXYXYXHXCXeXBX2XXXoXPXoXxXNXp.e.w.6.+.X..._ ( ~ ! R K b YX",
"YXYXYXYXYXYX).KXeXvXBX<X'.&XDX].JX6Xw.w.+.o. ..._ ( ! ! R K b YX",
"YXYXYXYXYXYXu. XKX+XmXNX:Xt.;XZX`.JX<X6.o.X..._ ( ( Q Q K K b YX",
"YXYXYXYXYXYX:X'.;XHXOXHX5Xp.t.bX8XOXHXp.o...| _ ( ~ ! Q K H b YX",
"YXYXYXYXYXYXa.,Xu.-XZXOXHX2Xe.#.LX3X&XFXw. .| ( ^ ! Q P K G b YX",
"YXYXYXYXYXYXi.:X>X7.MXyX-XFXi.0.`.JX].;XrX.._ / ~ Q P P H S c YX",
"YXYXYXYXYXYXe.|.:Xa.9.MX3X7XCXy.[ [.FXu.SX$X2.l.V J P K G S c YX",
"YXYXYXYXYXYXr.a.a.a.t.9.FX+XcXtXo.#.wXnXQ.E.G.V.M 4 P K S S c YX",
"YXYXYXYXYXYX+.i.p.i.y.0.8.JX[.xX6X0XiXUX~.R.S.B.>.- P G S A c YX",
"YXYXYXYXYXYXo.y.i.e.e.e.[  XDX].ZXLXGXIXE.J.A.B.g.+ S S S p c YX",
"YXYXYXYXYXYX .e.e.e.w.6.+.) %XFX).{.=XI.H.D.B.m.b.m u S p p c YX",
"YXYXYXYXYXYX_ 0.w.w.+.+.O.o.) ].KX@XK.F.D.V.m.n.n.-.2 p p p c YX",
"YXYXYXYXYXYX/ 6.0.+.O.o.X. . .T @.wXsXV.B.m.n.n.b.,.> p p p c YX",
"YXYXYXYXYXYX! o.+.o.X... ._ | ( R n <.v.m.b.4.=.l + < u p p c YX",
"YXYXYXYXYXYXF ..X... .| | ( ( ^ ! ! E 1.k o $ & u p p p p p c YX",
"YXYXYXYXYXYX] +.5.5.} { { ] ' ' W R P I 4 u a A a a p p p p c YX",
"fXhXuXgXlXlXlXpX^.^.Q.~.~.E.E.!.N e H H G S A p p p p p p p c YX",
"jXkXg g dXfXaXP.g J.f V.m.n.n.Z.m 4 H G S a A p p A p p p p c YX",
"aXY.g I.g W.g H.g h.g c.g x.g C.m < G a p u s d s t e e e 2 5 YX",
"pXT.g Q.g k.g D.g =.g 4.g :.g C.m < S p p t  X3X#X'.$.` T 3 , YX",
"/.P.g W.g j.g N.g g g 4.g :.g C.h > p p i t 8XCXtX5X:X6.z , O YX",
"~.L.g z.g f.g n.:.f n.g.g ;.g N.h & p p p t 1XtX6X<Xe.J = 9 YXYX",
"~.z.g g A.>.g n.g.g n.n.g g 3.N.h > p p p w }.5X,Xy.v = 7 YXYXYX",
"d.s.s.s.s.g g *.*.*.*.&.%.%.%.%.X > p p i w q.:Xy.U 8 9 YXYXYXYX",
"+ B B B B B # % & & & & & & & & & u p p p w ` +.v = 7 YXYXYXYXYX",
"YXYXYXYXYXYXC Z A A A A A A A A A p p p p < E x 8 9 YXYXYXYXYXYX",
"YXYXYXYXYXYXC 6 i i p 6 p i i 6 i i p i 6 < * = 7 YXYXYXYXYXYXYX",
"YXYXYXYXYXYX. 0 % % % % % % % % % % % % % @ - q YXYXYXYXYXYXYXYX"
};
