/* XPM */
static char *djvulibre_djview_[] = {
/* columns rows colors chars-per-pixel */
"64 64 256 2",
"   c #193B75",
".  c #13366D",
"X  c #243975",
"o  c #35356E",
"O  c #50385B",
"+  c #74394F",
"@  c #7B3953",
"#  c #6E3457",
"$  c #4B3B7B",
"%  c #573879",
"&  c #4F3068",
"*  c #782D65",
"=  c #6B326E",
"-  c #663676",
";  c #6F306B",
":  c #32496E",
">  c #2A4478",
",  c #3D5276",
"<  c #4C4C4D",
"1  c #474A4F",
"2  c #444554",
"3  c #5C5B5C",
"4  c #575456",
"5  c #5B4851",
"6  c #664856",
"7  c #75455A",
"8  c #62555B",
"9  c #64494E",
"0  c #695A60",
"q  c #775966",
"w  c #7E4F6A",
"e  c #646464",
"r  c #6C6C6C",
"t  c #6B6768",
"y  c #757575",
"u  c #7C7C7C",
"i  c #776958",
"p  c #BE791E",
"a  c #9C6324",
"s  c #A86C25",
"d  c #AC7229",
"f  c #B77828",
"g  c #B3783D",
"h  c #C37D1D",
"j  c #C27F22",
"k  c #872859",
"l  c #9B2958",
"z  c #893356",
"x  c #933058",
"c  c #A42354",
"v  c #A9275D",
"b  c #9B2C64",
"n  c #90326A",
"m  c #AB2964",
"M  c #BC296C",
"N  c #B32965",
"B  c #B23474",
"V  c #C12B72",
"C  c #C53779",
"Z  c #8F506D",
"A  c #906A75",
"S  c #9C6563",
"D  c #C65D69",
"F  c #D1881C",
"G  c #E79103",
"H  c #E89103",
"J  c #E58F04",
"K  c #CD8421",
"L  c #CF8C2A",
"P  c #EBA224",
"I  c #EAAF2E",
"U  c #EDB12E",
"Y  c #F2B52F",
"T  c #E0A13C",
"R  c #B5874C",
"E  c #AC8B6E",
"W  c #CE9A50",
"Q  c #D9A455",
"!  c #EFB346",
"~  c #E1AF56",
"^  c #E2B772",
"/  c #F2C467",
"(  c #FFDA72",
")  c #FCD670",
"_  c #353F80",
"`  c #443E80",
"'  c #1E4383",
"]  c #244789",
"[  c #364587",
"{  c #29529B",
"}  c #38569C",
"|  c #264F96",
" . c #2B56A1",
".. c #464283",
"X. c #565A99",
"o. c #4D5791",
"O. c #6C5895",
"+. c #686887",
"@. c #70708D",
"#. c #7A7A95",
"$. c #777792",
"%. c #4569A9",
"&. c #4367A8",
"*. c #596BA5",
"=. c #6263A2",
"-. c #6B76AA",
";. c #8A4E8B",
":. c #B35586",
">. c #906D92",
",. c #B0708E",
"<. c #936EA3",
"1. c #B675A3",
"2. c #A678A7",
"3. c #CB588C",
"4. c #CD779B",
"5. c #CD78A2",
"6. c #7589B3",
"7. c #7CB2DE",
"8. c #77AEDE",
"9. c #848484",
"0. c #8B8B8B",
"q. c #84859B",
"w. c #949494",
"e. c #9C9C9C",
"r. c #91908F",
"t. c #ADB998",
"y. c #8C8CA3",
"u. c #8787A0",
"i. c #9494AA",
"p. c #9495AA",
"a. c #9199B5",
"s. c #9BA3BA",
"d. c #A4A5A4",
"f. c #ABABAB",
"g. c #A7A7A9",
"h. c #A7A7B8",
"j. c #B4B4B4",
"k. c #BCBCBC",
"l. c #9AA18C",
"z. c #C4B6A4",
"x. c #B7CEAA",
"c. c #B0C49B",
"v. c #F6D589",
"b. c #F3D186",
"n. c #F9E6AB",
"m. c #FFF2B6",
"M. c #8ABDDD",
"N. c #86BADE",
"B. c #9AAED2",
"V. c #ACB2C4",
"C. c #B4B4C3",
"Z. c #BDBDCA",
"A. c #B8BACA",
"S. c #AFB7CC",
"D. c #84BCE7",
"F. c #89BFF1",
"G. c #93C4DD",
"H. c #9CCBDB",
"J. c #94C7DC",
"K. c #A3CBDB",
"L. c #AACADA",
"P. c #B7C4D6",
"I. c #B5D3DC",
"U. c #A7D4DA",
"Y. c #9AE4D9",
"T. c #B8FEC9",
"R. c #A9E9DD",
"E. c #B8EADD",
"W. c #AEFFC1",
"Q. c #8BC2E7",
"!. c #97CAE8",
"~. c #9ED5ED",
"^. c #8DC2F2",
"/. c #8EC9F4",
"(. c #92C4F3",
"). c #93CBF5",
"_. c #9ACDF5",
"`. c #99C6F3",
"'. c #9CD2F5",
"]. c #9CD3F8",
"[. c #98D2F7",
"{. c #A3CAE9",
"}. c #A4D3EC",
"|. c #AAD5E7",
" X c #B4DCEC",
".X c #B8D9E6",
"XX c #A2D5F4",
"oX c #ADDBF3",
"OX c #A4DBF9",
"+X c #ABDDF9",
"@X c #A6D6F6",
"#X c #B4DAF6",
"$X c #AFCBE8",
"%X c #BAE6E9",
"&X c #ADE1FA",
"*X c #AAE1F3",
"=X c #B4E2F4",
"-X c #B4E3F9",
";X c #BCE6F9",
":X c #BBEAFB",
">X c #BBE5F5",
",X c #B0EEE7",
"<X c #9BE0E2",
"1X c #C1C1CC",
"2X c #CCCCCC",
"3X c #C5C5C5",
"4X c #C5C6D1",
"5X c #CBCBD4",
"6X c #C8CCD7",
"7X c #D4D4D4",
"8X c #D3D3DC",
"9X c #DCDCDD",
"0X c #CDD1D8",
"qX c #C8F9C8",
"wX c #C3FAD7",
"eX c #D7F6DA",
"rX c #C6E7CB",
"tX c #FDF7CD",
"yX c #E7E1D9",
"uX c #C7DDE5",
"iX c #DCDDE3",
"pX c #D5DAE4",
"aX c #CEDDF2",
"sX c #CBEBEB",
"dX c #C4E7EA",
"fX c #DAE8EB",
"gX c #C8FBE8",
"hX c #D6F9EA",
"jX c #C3E5F5",
"kX c #C3ECFA",
"lX c #CAEAF6",
"zX c #D8EAF3",
"xX c #C5F1FC",
"cX c #CBF3FB",
"vX c #CCF4F8",
"bX c #D3F2F3",
"nX c #D1F5FA",
"mX c #D4F9FB",
"MX c #DBFCFC",
"NX c #DDF5F5",
"BX c #E3E3E5",
"VX c #E4E4E9",
"CX c #EBEBEB",
"ZX c #E4E8EA",
"AX c #E5FAE7",
"SX c #E9ECF1",
"DX c #E2FCFC",
"FX c #EBFCFC",
"GX c #E7F4F6",
"HX c #F3F3F4",
"JX c #F3FCFC",
"KX c #FEFEFE",
"LX c #F4FCF5",
"PX c #F1F0EF",
"IX c #E1D3C0",
"UX c None",
/* pixels */
"UXUXUXUXUXUXUXUXUXUXUXUXUXUXUXUXUXUXUXUXUXUXUXUXUXUXUXUXUXUXUXUXUXUXUXUXUXUXUXUXUXUXUXUXUXUXUXUXUXUXUXUXUXUXUXUXUXUXUXUXUXUXUXUX",
"UXUXUXUXUXUXUXUXo & # O O 2 2 2 1 1 1 1 < < < < < UXUXUXUXUXUXUXUXUXUXUXUXUXUXUXUXUXUXUXUXUXUXUXUXUXUXUXUXUXUXUXUXUXUXUXUXUXUXUX",
"UXUXUXUXUXUXUXUXk c + d.9XBXBXBXBXBXBXZXCXCXCXCXCX2Xf.0.y < UXUXUXUXUXUXUXUXUXUXUXUXUXUXUXUXUXUXUXUXUXUXUXUXUXUXUXUXUXUXUXUXUXUX",
"UXUXUXUXUXUXUXo c + 0.KXKXKXKXKXKXKXKXKXKXKXKXKXKXKXKXKXKXBX0.5 9 l.t.d.d.e.e.w.9.r < < UXUXUXUXUXUXUXUXUXUXUXUXUXUXUXUXUXUXUXUX",
"UXUXUXUXUXUXUX& c 9 HXKXKXKXKXKXKXKXKXKXKXKXKXKXKXKXKXKXKXKXKX9Xx.LXLXeXKXKXKXKXKXKXJX9Xk.e.>.6 UXUXUXUXUXUXUXUXUXUXUXUXUXUXUXUX",
"UXUXUXUXUXUXUX= c e KXKXKXKXKXKXKXKXKXKXKXKXKXKXKXKXKXKXKXKXKXCXx.AXAXeXKXKXKXKXKXKXKXKXKXKXKXKX7Xf.A 7 @ l c UXUXUXUXUXUXUXUXUX",
"UXUXUXUXUXUXUX* l 9.KXKXKXKXKXKXKXKXKXKXKXKXKXKXKXKXKXKXKXKXKX9Xc.AXAXeXKXKXKXKXKXKXKXKXKXKXKXKXKXKXKXJX0.9 z l k UXUXUXUXUXUXUX",
"UXUXUXUXUXUX. l z d.KXKXKXKXKXKXKXKXKXKXKXKXKXKXKXKXKXKXKXKXKX2Xc.eXeXqXKXKXKXKXKXKXKXKXKXKXKXKXKXKXKXKXe.y t + k UXUXUXUXUXUXUX",
"UXUXUXUXUXUXX c @ k.KXKXKXKXKXKXKXKXKXKXKXKXKXKXKXKXKXKXKXKXKX3Xt.qXqXqXKXKXKXKXKXKXKXKXKXKXKXKXKXKXKXKXw.y y + k UXUXUXUXUXUXUX",
"UXUXUXUXUXUXo c + 9XKXKXKXKXKXKXKXKXKXKXKXKXKXKXKXKXJXHXHXHXHX2Xt.qXqXqXKXKXKXKXKXKXKXKXKXKXKXKXKXKXKXKXw.y y + k UXUXUXUXUXUXUX",
"UXUXUXUXUXUX& c 5 JXKXKXKXKXKXKXKXKXKXKXKXKXKXHXZXiXiXBXVXVXBXpX8X8XrXrXKXKXKXKXKXKXKXKXKXKXKXKXKXKXKXKX0.y y + k UXUXUXUXUXUXUX",
"UXUXUXUXUXUX; c t KXKXKXKXKXKXKXKXKXKXKXKXPXiXVXSXzX#X#X@X@X#X#XjXfXfX8X8XHXKXKXKXKXKXKXKXKXKXKXKXKXKXKX0.y y @ k UXUXUXUXUXUXUX",
"UXUXUXUXUXUXk l 9.KXKXKXKXKXKXKXKXKXKXHXiXVXzX@X(.(.)._._.].].'.XXXX#XlXVX5X8XJXKXKXKXKXKXKXKXKXKXKXKXKX9.y y @ k UXUXUXUXUXUXUX",
"UXUXUXUXUX  l z d.KXKXKXKXKXKXKXKXKXSXiXZX#X(.).)._.].].XX@XOX'.~.~.XX@X#XzX8X4XHXKXKXKXKXKXKXKXKXKXKXKX9.y r z k UXUXUXUXUXUXUX",
"UXUXUXUXUXX v @ 3XKXKXKXKXKXKXKXKXVXiXzX(.(.).[.].].XXOXOXOX+XXX}.~.<X*X+X+XjXpXZ.CXKXKXKXKXKXKXKXKXKXKXu y r z k UXUXUXUXUXUXUX",
"UXUXUXUXUX& v + BXKXKXKXKXKXKXKXCXpXaX^.).[.].].OXOXOX+X+X+X@X}.H.<X<X*X-X-X#X>XiXA.HXKXKXKXKXKXKXKXKXKXu y r z * UXUXUXUXUXUXUX",
"UXUXUXUXUX& v 5 KXKXKXKXKXKXKXPX8XaX^.).[.].OXOX&X&X&X&X-X-XoXoXH.Y.Y.=X:X:X:X;XjX8XA.JXKXKXKXKXKXKXKXKXy y r z * UXUXUXUXUXUXUX",
"UXUXUXUXUX* v r KXKXKXKXKXKXKX8XfX^.).[.].OX+X&X-X-X-X-X-X:X=X-XU.Y.Y.;XkXkX:X:X;XlX4X5XKXKXKXKXKXKXKXKXy y t x * UXUXUXUXUXUXUX",
"UXUXUXUXUXb l 0.KXKXKXKXKXKXBXpX{./.[.].OX+X&X-X:X:X:X:X-X;X=XkXU.R.Y.kXkXkXkXxXxXkXzXh.PXKXKXKXKXKXKXHXy y t x * UXUXUXUXUXUXUX",
"UXUXUXUX  m z f.KXKXKXKXKXHX5XaX^.).].OX+X&X-X:X;X:XkXxX:X;X XxXR.R.R.xXcXcXcXcXcXxXlX4XZ.KXKXKXKXKXKXHXy y e x * UXUXUXUXUXUXUX",
"UXUXUXUXo N @ 2XKXKXKXS.B.A.8X`.^.).].].+X-X:X;X}.|.jXjXoX}. XcX%X,XR.cXcX X X>XnXcXcXzXh.HXKXKXKXKXKXCXy y e l ; UXUXUXUXUXUXUX",
"UXUXUXUX$ N 6 CXKXKXKX%. .A.pXF.F./.'.'._.XX:XkX X XjXjX!.N.{.cX%X,XE.nX XG.G..XmXmXcXbXC.8XKXKXKXKXKXCXu u e l ; UXUXUXUXUXUXUX",
"UXUXUXUX= N 8 KXJXKXKX%.&.Z..X^.D.).'._.!.~.>XkXjXjXbXnXG.M.G.cXgX,XE.nXH.H.K.dX>X%XmXnX6Xs.s.P.KXKXKXBXu u e v ; UXUXUXUXUXUXUX",
"UXUXUXUXn N y HXLXJXJX%.-.1X{.(.(.'.XXXX!.~.oXkX X XlXnX|.G.G.%XgXgXgX%XH.H.I.dXH.H.nXmXfXi.. , LXKXKXBXu u e v = UXUXUXUXUXUXUX",
"UXUXUX  b b 0.HXLXLXJX%.6.4X`.).'.XXOX+X~.~.oXkX X X.XxXcXH.G.|.gXgXdXK.K.U.bXdXK.K.bXmXfXy.  : HXKXKX9Xu u e m = UXUXUXUXUXUXUX",
"UXUXUXX N z g.CXLXLXLX%.a.5X(.).].OX+X+XD.!.|.kX{.!.|.cXcX%XH..XgXgX%XK.K..XDXdXK.K.bXMXzXy.> : HXKXKX9Xu u e m = UXUXUXUXUXUXUX",
"UXUXUXo N @ k.CXLXLXLX%.a.5X^._.].XX+X+X7.7.M.#XN.M.|.cXmXnX|.|.%XgXE.K.I.bXDXdXK.L.bXMXzXy.> : HXKXKX7Xu u 3 N - UXUXUXUXUXUXUX",
"UXUXUX% M 6 7XCXLXLXLX%.6.4X(.).)._.'.XXQ.7.G.=XM.G.|.nXmXbXbXK.E.gXE.L.uXDXFXbXL.L.uXNXfXq.> : HXKXKX7X9.9.3 N - UXUXUXUXUXUXUX",
"UXUXUX; M 8 9XCXHXHXHX%.-.A.`.^.D.Q.D.D.!.!.|.=XM.G. XmXMXbXMX|.E.gXE.I.NXFXFXFXI.L.L.NXfX#.  : HXKXKX2X9.9.3 M % UXUXUXUXUXUXUX",
"UXUXUXn N r 7XHXHXHXHX%.*.V.{.(.D.Q.D.8.D.}.>X=X~.{.lXMXMXsXMXsXE.gXE.uXFXFXFXFXfXI.I.GXpX#., : HXJXJX2X9.9.3 M % UXUXUXUXUXUXUX",
"UXUX' m b 9.7XHXHXHXHX5Xg.h..X`.!.~.~.!.}.!.N.Q.!.|.vXmXMXsXMXDXwXwXwXfXFXFXJXJXFXGXzXGXC.q.2Xj.HXLXLX3X9.9.3 M % UXUXUXUXUXUXUX",
"UXUX> M z e.7XHXHXHXHXHXHXh.P.(.XX+X+X#X-XQ.N.M.G..XmXMXMXsXMXDXgXwXwXGXJXJXJXJXJXJXGXzXi.Z.LXLXLXLXLX3X9.9.8 M % UXUXUXUXUXUXUX",
"UXUX$ M @ f.9XHXHXHXHXHXHX1XC.{.'.+X+X#X-XoX!.K..XvXmXMXMXsXDXDXhXwXwXSXJXJXJXJXJXJXGXpX$.VXLXLXLXLXLXk.9.9.8 M % UXUXUXUXUXUXUX",
"UXUX- M 6 k.9XHXHXHXHXHXHXBXp.P._.OX+X-X-X;XkXkXcXcXmXMXMXsXDXDXhXT.T.ZXJXJXJXJXJXGXSXh.i.HXHXHXHXHXHXk.9.9.8 M $ UXUXUXUXUXUXUX",
"UXUX* M 3 k.BXHXHXHXHXHXHXHXC.h.{.XX+X-X-X>XkXkXcXcXmXMXMXsXDXDXhXT.T.fXJXJXJXKXJXGX0X@.9XHXHXHXHXHXHXk.0.0.6 M $ UXUXUXUXUXUXUX",
"UX' n N r j.CXCXHXHXHXHXHXHXZXy.A.{.@X-X-X;X;XkXcXcXmXMXMXsXDXDXhXW.T.eXJXJXJXJXGXVXy.#.iXHXHXHXHXHXHXj.0.0.6 M $ UXUXUXUXUXUXUX",
"UX' M b u j.CXCXCXCXCXCXCXCXHX5Xy.P.}.oX-X:X;XkXxXcXnXmXmXbXMXDXhXW.W.eXJXJXJXGXZXs.@.A.i.iXHXHXHXHXHXj.0.0.6 V $ UXUXUXUXUXUXUX",
"UX_ V z 0.k.CXCXCXCXCXCXCXCXCXCXC.y.P.}.oX;X:XkXkXcXnXmXbXbXMXDXNXT.hXhXFXFXSXZXV.+.Z.4Xu.BXHXHXHXHXHXj.0.0.6 V ` UXUXUXUXUXUXUX",
"UX$ V 7 w.3XCXCXCXCXCXCXCXCXCXCXCXh.u.A.|.oX:XxXxXcXnXmXsXmXMXDXDXDXFXFXGXSXfXs.+.Z.8Xu.h.CXHXHXHXHXHXf.0.0.7 V ` UXUXUXUXUXUXUX",
"UX- V 6 e.7XCXCXCXCXCXCXCXCXCXCXCXCXj.#.V.$XoX>XkXcXcXmXsXmXMXMXDXDXNXzXfX6Xq.+.8XiXi.5XZ.h.9X7XQ ^ PXf.0.0.7 V ..UXUXUXUXUXUXUX",
"UXn C 3 e.9XCXCXCXCXCXCXCXCXCXCXCXCXCX1X$.u.S..X X>XjXvXlXbXbXbXbXbXfX0Xp.+.#.C.ZXp.Z.CX8XC.A.W F L ^ g.0.9.7 C [ UXUXUXUXUXUXUX",
"' B B e w.ZXCXCXCXCXCXCXCXCXCXCXCXCXCXCXVXh.@.q.p.P..X.XdXdXuXuX0XV.u.+.@.1XCX5Xp.iX5X1XZ.9XQ T P H L W r.9.7 C [ UXUXUXUXUXUXUX",
"' C Z r e.CXCXCXCXCXCXCXCXCXCXCXCXCXCXCXCXCXBXC.q.+.@.$.#.q.$.@.+.+.i.1XCXCXCXCXCXCXCXZ.7XQ ~ / ! P H L R 9.7 C [ UXUXUXUXUXUXUX",
"[ C Z y g.ZXZXZXCXCXCXCXCXCXCXCXCXCXCXCXCXCXCXCXCXBX5XZ.q.h.C.1X7XCXCXCXCXCXCXCXCXCXCX7XQ ^ n.v./ ! P H F R Z C [ UXUXUXUXUXUXUX",
"..C 7 y w.f.g.g.d.d.g.g.f.f.f.f.j.k.2X7XBXCXCXCXCXCXCXCXf.CXCXCXCXCXCXCXCXCXCXCXCXCXCXW ~ m.tXn.v./ ! P G K g C [ UXUXUXUXUXUXUX",
"] C Z w 7 6 6 4 4 4 4 4 3 3 3 e e e e e e r u e.k.9XCXCXf.ZXZXZXZXCXCXCXCXCXCXCXCXCXyXL Y ( m.tXn.v./ ! P G K g [ UXUXUXUXUXUXUX",
"UX..;.;.:.:.3.3.3.3.:.:.A A A Z q q 8 4 4 4 4 4 3 3 y w.w.f.d.w.w.w.e.d.g.f.k.2X9XZXCXIXL Y ( m.tXn.v./ ! P G K S UXUXUXUXUXUXUX",
"UXUXUX] ] ] ] ] [ [ o.X.O.O.>.>.<.2.1.5.5.5.4.,.,.,.A A A q 0 8 3 3 e r y y u 9.0.w.d.j.z.L Y ( m.tXn.v./ ! P G j f UXUXUXUXUXUX",
"UXUXUXUXUXUXUXUXUXUXUXUXUXUXUXUX| | | | { { } o.X.=.=.} { =.<.2.1.5.5.4.,.,.A A Z q 0 0 8 i f Y ( m.tXn.v./ ! P G K f UXUXUXUXUX",
"UXUXUXUXUXUXUXUXUXUXUXUXUXUXUXUXUXUXUXUXUXUXUXUXUXUXUXUXUXUXUX{ { { { } X.=.-.<.<.1.5.5.4.4.D f Y ( m.tXn.v./ ! P G h f UXUXUXUX",
"UXUXUXUXUXUXUXUXUXUXUXUXUXUXUXUXUXUXUXUXUXUXUXUXUXUXUXUXUXUXUXUXUXUXUXUXUXUXUXUXUX| | | } o.X.y f Y ( m.tXn.v./ ! P G h f UXUXUX",
"UXUXUXUXUXUXUXUXUXUXUXUXUXUXUXUXUXUXUXUXUXUXUXUXUXUXUXUXUXUXUXUXUXUXUXUXUXUXUXUXUXUXUXUXUXUXUXUXUXd U ( m.tXn.v./ ! P G p d UXUX",
"UXUXUXUXUXUXUXUXUXUXUXUXUXUXUXUXUXUXUXUXUXUXUXUXUXUXUXUXUXUXUXUXUXUXUXUXUXUXUXUXUXUXUXUXUXUXUXUXUXUXd U ( m.tXn.v./ ! P G p d UX",
"UXUXUXUXUXUXUXUXUXUXUXUXUXUXUXUXUXUXUXUXUXUXUXUXUXUXUXUXUXUXUXUXUXUXUXUXUXUXUXUXUXUXUXUXUXUXUXUXUXUXUXs U ( m.tXn.v./ ! P J s UX",
"UXUXUXUXUXUXUXUXUXUXUXUXUXUXUXUXUXUXUXUXUXUXUXUXUXUXUXUXUXUXUXUXUXUXUXUXUXUXUXUXUXUXUXUXUXUXUXUXUXUXUXUXs U ( m.tXn.v./ ! f E UX",
"UXUXUXUXUXUXUXUXUXUXUXUXUXUXUXUXUXUXUXUXUXUXUXUXUXUXUXUXUXUXUXUXUXUXUXUXUXUXUXUXUXUXUXUXUXUXUXUXUXUXUXUXUXs U ( m.tXn.b.g E p.UX",
"UXUXUXUXUXUXUXUXUXUXUXUXUXUXUXUXUXUXUXUXUXUXUXUXUXUXUXUXUXUXUXUXUXUXUXUXUXUXUXUXUXUXUXUXUXUXUXUXUXUXUXUXUXUXs I ( m.tXR E h.u.UX",
"UXUXUXUXUXUXUXUXUXUXUXUXUXUXUXUXUXUXUXUXUXUXUXUXUXUXUXUXUXUXUXUXUXUXUXUXUXUXUXUXUXUXUXUXUXUXUXUXUXUXUXUXUXUXUXa I ) R E 4Xh.@.UX",
"UXUXUXUXUXUXUXUXUXUXUXUXUXUXUXUXUXUXUXUXUXUXUXUXUXUXUXUXUXUXUXUXUXUXUXUXUXUXUXUXUXUXUXUXUXUXUXUXUXUXUXUXUXUXUXUXa d S Z.y.+.UXUX",
"UXUXUXUXUXUXUXUXUXUXUXUXUXUXUXUXUXUXUXUXUXUXUXUXUXUXUXUXUXUXUXUXUXUXUXUXUXUXUXUXUXUXUXUXUXUXUXUXUXUXUXUXUXUXUXUXUXUXUX+.UXUXUXUX",
"UXUXUXUXUXUXUXUXUXUXUXUXUXUXUXUXUXUXUXUXUXUXUXUXUXUXUXUXUXUXUXUXUXUXUXUXUXUXUXUXUXUXUXUXUXUXUXUXUXUXUXUXUXUXUXUXUXUXUXUXUXUXUXUX",
"UXUXUXUXUXUXUXUXUXUXUXUXUXUXUXUXUXUXUXUXUXUXUXUXUXUXUXUXUXUXUXUXUXUXUXUXUXUXUXUXUXUXUXUXUXUXUXUXUXUXUXUXUXUXUXUXUXUXUXUXUXUXUXUX",
"UXUXUXUXUXUXUXUXUXUXUXUXUXUXUXUXUXUXUXUXUXUXUXUXUXUXUXUXUXUXUXUXUXUXUXUXUXUXUXUXUXUXUXUXUXUXUXUXUXUXUXUXUXUXUXUXUXUXUXUXUXUXUXUX",
"UXUXUXUXUXUXUXUXUXUXUXUXUXUXUXUXUXUXUXUXUXUXUXUXUXUXUXUXUXUXUXUXUXUXUXUXUXUXUXUXUXUXUXUXUXUXUXUXUXUXUXUXUXUXUXUXUXUXUXUXUXUXUXUX"
};
