/* XPM */
static char *djvulibre-djview3[] = {
/* columns rows colors chars-per-pixel */
"32 32 257 2",
"   c black",
".  c #17346B",
"X  c #163973",
"o  c #1A3D7B",
"O  c #273E62",
"+  c #363365",
"@  c #313771",
"#  c #33425B",
"$  c #493268",
"%  c #433C7C",
"&  c #4B3B7B",
"*  c #4F3976",
"=  c #5B2E63",
"-  c #572E62",
";  c #56326B",
":  c #583168",
">  c #523672",
",  c #5A3775",
"<  c #672B5F",
"1  c #7F2A5D",
"2  c #723853",
"3  c #692C60",
"4  c #63316B",
"5  c #653A7C",
"6  c #782F6A",
"7  c #743879",
"8  c #4C4C4C",
"9  c #424852",
"0  c #59415A",
"q  c #585858",
"w  c #7A4A5E",
"e  c #754E5E",
"r  c #6A5660",
"t  c #785B69",
"y  c gray43",
"u  c #7D606C",
"i  c #7B7B7B",
"p  c #767573",
"a  c #1C4180",
"s  c #284587",
"d  c #244D93",
"f  c #275097",
"g  c #29529B",
"h  c #3B4283",
"j  c #344486",
"k  c #3658A0",
"l  c #413F81",
"z  c #45589A",
"x  c #465CA0",
"c  c #56609F",
"v  c #496BA5",
"b  c #5C7BB1",
"n  c #625B8D",
"m  c #7A4C89",
"M  c #684686",
"N  c #726AA4",
"B  c #7F90B0",
"V  c #7BB0DC",
"C  c #7DB3E0",
"Z  c #833954",
"A  c #952955",
"S  c #93315A",
"D  c #882A56",
"F  c #8C3F62",
"G  c #843879",
"H  c #912C68",
"J  c #933963",
"K  c #9A3966",
"L  c #A42253",
"P  c #A02E62",
"I  c #A32F71",
"U  c #A4376A",
"Y  c #955E28",
"T  c #9C6428",
"R  c #BC7C1D",
"E  c #AD7328",
"W  c #A1753B",
"Q  c #BB7E30",
"!  c #A46A28",
"~  c #86405C",
"^  c #834460",
"/  c #8C4965",
"(  c #8A5E6E",
")  c #8C6474",
"_  c #856574",
"`  c #807579",
"'  c #93607B",
"]  c #956777",
"[  c #A5416F",
"{  c #C16E43",
"}  c #89558A",
"|  c #935D83",
" . c #986887",
".. c #916B93",
"X. c #9D7B89",
"o. c #876B99",
"O. c #806CA2",
"+. c #BC8232",
"@. c #B78C4C",
"#. c #C3821D",
"$. c #DD8B0A",
"%. c #C18630",
"&. c #E4910D",
"*. c #E89000",
"=. c #E49518",
"-. c #D8A246",
";. c #CAA160",
":. c #D6AA68",
">. c #E8B76D",
",. c #FAC645",
"<. c #FBC845",
"1. c #E8C17E",
"2. c #FFD96F",
"3. c #FFDA70",
"4. c #848484",
"5. c #8B8A8A",
"6. c #85859E",
"7. c #96878F",
"8. c #95878D",
"9. c #9D8C93",
"0. c #939393",
"q. c #9C9A9C",
"w. c #8D8DA3",
"e. c #8C9BB6",
"r. c #8894B1",
"t. c #9393A8",
"y. c #9C9DB0",
"u. c #929AB5",
"i. c #9FA0B4",
"p. c #A0828E",
"a. c #A38A93",
"s. c #A7949B",
"d. c #AA9EA4",
"f. c #A69EA1",
"g. c #A3A3A3",
"h. c #ACAAAB",
"j. c #A0A1B2",
"k. c #A1A9BE",
"l. c #ABABBB",
"z. c #B1AEAF",
"x. c #BBBBBB",
"c. c #B7B3B3",
"v. c #899FC4",
"b. c #86B9DC",
"n. c #84BDE8",
"m. c #A4AEC1",
"M. c #B3B4C3",
"N. c #B3B8C3",
"B. c #B4B9C9",
"V. c #B9B9C7",
"C. c #BDBDC9",
"Z. c #B3BED3",
"A. c #8FC0DE",
"S. c #91C2DF",
"D. c #9AD8DB",
"F. c #89C3EE",
"G. c #8AC4F4",
"H. c #9CCAE4",
"J. c #96C8E9",
"K. c #91C5F4",
"L. c #95CBF6",
"P. c #9ACCF5",
"I. c #98C6F3",
"U. c #9ED3EC",
"Y. c #96D0F8",
"T. c #9BD0F3",
"R. c #9BD2F8",
"E. c #97D0F5",
"W. c #AFC9DF",
"Q. c #B8C1CF",
"!. c #B5C5D6",
"~. c #A3CFE2",
"^. c #ABCBE3",
"/. c #A9C8E8",
"(. c #A3C9F0",
"). c #A3D0E2",
"_. c #A3D2EE",
"`. c #AAD3EA",
"'. c #ACD9EC",
"]. c #A5D9E5",
"[. c #A5D8F6",
"{. c #A3D8F9",
"}. c #ABDEF9",
"|. c #A5D2F6",
" X c #B6CDEB",
".X c #B2DBE4",
"XX c #B1DCEB",
"oX c #BBD6E2",
"OX c #B1DDF3",
"+X c #B8DDF3",
"@X c #B0DEF9",
"#X c #A2E2DB",
"$X c #ACE2E2",
"%X c #AEE0FA",
"&X c #B7E1EF",
"*X c #B3EBE4",
"=X c #BAE4E6",
"-X c #B4E3F9",
";X c #BAE5F4",
":X c #BBE9FB",
">X c #B6E4F6",
",X c #BDF5E8",
"<X c #DEBB84",
"1X c #CABAAC",
"2X c #C1B7B5",
"3X c #C3DAB3",
"4X c #EBCFA3",
"5X c #C6C6C6",
"6X c #C2C2CE",
"7X c #CCCBCB",
"8X c #CECAC4",
"9X c #CCCCD6",
"0X c #C8D4DD",
"qX c #D2D2D2",
"wX c #D4D4DB",
"eX c #DBDBDD",
"rX c #C7DDEB",
"tX c #DDDDE3",
"yX c #D4DDE8",
"uX c #CDEDC5",
"iX c #C6F7DF",
"pX c #C6F9D9",
"aX c #CBF9DC",
"sX c #CAF6D6",
"dX c #D2E4C7",
"fX c #DCE9D6",
"gX c #D0F5DC",
"hX c #C7EAEF",
"jX c #CCEDED",
"kX c #C9E4E9",
"lX c #C3ECFA",
"zX c #CFE4F1",
"xX c #CBEEF3",
"cX c #C6F9EA",
"vX c #C8F2E2",
"bX c #CAF2FA",
"nX c #CAF3F8",
"mX c #DAE2E9",
"MX c #D5EDF8",
"NX c #D3F9FB",
"BX c #DEFCFC",
"VX c #D5F5F8",
"CX c #E3E8D9",
"ZX c #E3E3E3",
"AX c #E5E5E9",
"SX c #EBEBEC",
"DX c #E6E9EF",
"FX c #E9EEF4",
"GX c #EAF6E7",
"HX c #E1FAFA",
"JX c #ECFCFD",
"KX c #E6F3F5",
"LX c #F0EFF0",
"PX c #F3F3F3",
"IX c #F2FBFC",
"UX c #FEFEFE",
"YX c None",
/* pixels */
"YXYXYXYX. $ + O # 9 8 8 8 8 YXYXYXYXYXYXYXYXYXYXYXYXYXYXYXYXYXYX",
"YXYXYX. D d.eXeXZXZXZXZXZXx.q.0 r p p y q 8 8 YXYXYXYXYXYXYXYXYX",
"YXYXYX+ Z UXUXUXUXUXUXUXUXUXUXPXfXCXUXUXUXAX7Xd._ 2 A L L YXYXYX",
"YXYXYX- ( UXUXUXUXUXUXUXUXUXUXAXdXfXUXUXUXUXUXUXUXUXc.~ < YXYXYX",
"YXYXYX< 8.UXUXUXUXUXUXUXUXUXUXeX3XuXUXUXUXUXUXUXUXUXUXg.= YXYXYX",
"YXYXX 1 h.UXUXUXUXUXUXUXUXUXMXFXGXGXUXUXUXUXUXUXUXUXUXs.= YXYXYX",
"YXYXX A 7XUXUXUXUXIXDX|.I.L.Y.P._.&XmXDXUXUXUXUXUXUXUXs.= YXYXYX",
"YXYX@ S SXUXUXUXFXyXI.L.R.{.{._.U.[.}.zXwXUXUXUXUXUXUXa.: YXYXYX",
"YXYX> Z UXUXUXIXyXK.Y.{.{.%X%X_.D.].:X:XzXtXUXUXUXUXUX7.: YXYXYX",
"YXYX4 ) UXUXUXtXK.Y.{.}.:X:X-X>X#X$XlXlXlX0XPXUXUXUXUXX.; YXYXYX",
"YXo 6 9.UXQ.r. XG.E.{.-X'.;XH.&X*X*XXXXXbXVX9XUXUXPXi e , YXYXYX",
"YXo H z.IXe.r.(.F.E.J.:X+XMXS.).,X,XH..XXXNXB.v.UXPXi w ; YXYXYX",
"YXo P qXUXe.k.I.Y.{.J.OX`.;XXX).cX.X~.jX~.BXN.v UXPX` w * YXYXYX",
"YX% S AXPXe.k.G.P.[.V H.b.&XnX.XcX.XkXBX^.VXQ.v UXAX4.w * YXYXYX",
"YX, / AXPXe.r.I.n.V J.OXS.nXVXhXvX=XKXJXoXzXu.b IXZX4.^ & YXYXYX",
"YX7 ) ZXPXSXx./.T._.H.b.).nXjXBXiXgXJXJXIXMXd.UXPXZX4.~ & YXYXYX",
"o G 7.SXPXPXAXZ.|.}.OX`.nXNXjXBXpXgXIXIXIXtXV.IXPXeX4./ % YXYXYX",
"o I g.SXLXPXPXC.^.}.>XlXbXVXjXBXpXsXIXUXFXy.SXPXPXeX5.S % YXYXYX",
"s U c.LXLXLXLXSXl._.>X:XbXNXjXBXpXgXJXFXM.M.6XPXPXqX5.K l YXYXYX",
"* K 5XSXLXSXSXLXtXy.W.;XlXNXjXBXHXHXmXj.V.9XAXPX4XqX5.K h YXYXYX",
"5 / qXSXSXSXLXSXSXSXl.k.!.kXhXkX0XN.w.wXeXPXPX>.=.:.0.K h YXYXYX",
"7 ) qXDXSXLXSXSXSXSXSXtXQ.y.w.t.l.wXSXSXSXSX1.&.*.&.@.[ j YXYXYX",
"G t 8.0.0.0.0.5.0.q.h.x.AXSX5XAXSXAXSXSXSX<X,.3.*.*.$.{ j YXYXYX",
"h M m m } } | | ' ) ) u t ` 5.i i 5.q.g.x.8X-.<.3.*.*.$.W YXYXYX",
"YXYXYXYXd d d f g g g z c x k N O.o... . .] ] %.,.3.*.*.$.#.YXYX",
"YXYXYXYXYXYXYXYXYXYXYXYXYXYXYXYXYXg g g g d z n +.,.3.*.*.$.R YX",
"YXYXYXYXYXYXYXYXYXYXYXYXYXYXYXYXYXYXYXYXYXYXYXYXE #.<.3.*.*.$.Q ",
"YXYXYXYXYXYXYXYXYXYXYXYXYXYXYXYXYXYXYXYXYXYXYXYXYX! #.<.3.*.%.1X",
"YXYXYXYXYXYXYXYXYXYXYXYXYXYXYXYXYXYXYXYXYXYXYXYXYXYXT R ,.;.2X6X",
"YXYXYXYXYXYXYXYXYXYXYXYXYXYXYXYXYXYXYXYXYXYXYXYXYXYXYXY E c.y.w.",
"YXYXYXYXYXYXYXYXYXYXYXYXYXYXYXYXYXYXYXYXYXYXYXYXYXYXYXYXYXYXYXYX",
"YXYXYXYXYXYXYXYXYXYXYXYXYXYXYXYXYXYXYXYXYXYXYXYXYXYXYXYXYXYXYXYX"
};
