/* XPM */
static char *djvulibre_djview_[] = {
/* columns rows colors chars-per-pixel */
"32 32 256 2",
"   c #3A3D5D",
".  c #233F6E",
"X  c #3D3262",
"o  c #41385E",
"O  c #572F64",
"+  c #592D62",
"@  c #403066",
"#  c #4F336D",
"$  c #54326C",
"%  c #413977",
"&  c #4C3877",
"*  c #443C7D",
"=  c #4C3B7B",
"-  c #4E3774",
";  c #563674",
":  c #692C60",
">  c #782F6A",
",  c #63316C",
"<  c #683B7E",
"1  c #703474",
"2  c #36435A",
"3  c #2D466E",
"4  c #274270",
"5  c #7F475E",
"6  c #724E5D",
"7  c #794A5F",
"8  c #744358",
"9  c #6D545E",
"0  c #6A665C",
"q  c #685166",
"w  c #6A5A60",
"e  c #785867",
"r  c gray43",
"t  c #79636C",
"y  c #777777",
"u  c #7B7A7B",
"i  c #7E7579",
"p  c #BB7B1C",
"a  c #A6702A",
"s  c #B5792C",
"d  c #A17438",
"f  c #B47D33",
"g  c #C37E1F",
"h  c #C06E3F",
"j  c #842A59",
"k  c #912B58",
"l  c #8F3056",
"z  c #833D57",
"x  c #93345E",
"c  c #982E65",
"v  c #8C3E62",
"b  c #943A64",
"n  c #9D3C69",
"m  c #873173",
"M  c #A73169",
"N  c #A22F70",
"B  c #85445F",
"V  c #874161",
"C  c #884A66",
"Z  c #A5416F",
"A  c #81616E",
"S  c #8C6575",
"D  c #94677A",
"F  c #82767B",
"G  c #7E8677",
"H  c #BE8332",
"J  c #DE8C0A",
"K  c #C2821C",
"L  c #E08E0B",
"P  c #E2910C",
"I  c #E19214",
"U  c #BA8B4A",
"Y  c #D4A049",
"T  c #EFB346",
"R  c #D4A763",
"E  c #C5A77E",
"W  c #F4CB67",
"Q  c #FBD56F",
"!  c #F1CC7E",
"~  c #3E3F81",
"^  c #6A3F80",
"/  c #2D4587",
"(  c #344385",
")  c #3B4082",
"_  c #3C579B",
"`  c #564685",
"'  c #5C588E",
"]  c #4C5D9F",
"[  c #6C4A88",
"{  c #794E8B",
"}  c #5C7192",
"|  c #475DA0",
" . c #7369A4",
".. c #86558B",
"X. c #925D86",
"o. c #956080",
"O. c #996889",
"+. c #827F80",
"@. c #8A7A82",
"#. c #886C9D",
"$. c #916C95",
"%. c #816DA4",
"&. c #7E93BA",
"*. c #7CB3DE",
"=. c #7EB6E3",
"-. c #848383",
";. c #8B8B8B",
":. c #9B8D8B",
">. c #84849C",
",. c #9B8A91",
"<. c #919191",
"1. c #9D9096",
"2. c #8C91AA",
"3. c #9090A5",
"4. c #9595AA",
"5. c #9E9EAF",
"6. c #9698AD",
"7. c #8A98BA",
"8. c #9E9EB2",
"9. c #9AA2B8",
"0. c #A5A3A4",
"q. c #ABA8AB",
"w. c #B1ADAF",
"e. c #ABABBC",
"r. c #A5A7B9",
"t. c #B6AEB2",
"y. c #A9B0BF",
"u. c #B4B1B3",
"i. c #B1B1BF",
"p. c #BBBBBB",
"a. c #DBB883",
"s. c #AFD5A0",
"d. c #BADDB0",
"f. c #B6E5AF",
"g. c #F6D589",
"h. c #EACEA3",
"j. c #C2E3BA",
"k. c #8FA2C3",
"l. c #90A3C4",
"z. c #9FA8C0",
"x. c #86BADE",
"c. c #8EBFDD",
"v. c #AFB7C7",
"b. c #AFBACF",
"n. c #B3B3C3",
"m. c #B9B9C5",
"M. c #B6BBC9",
"N. c #89BFE7",
"B. c #84BEEB",
"V. c #9ACADA",
"C. c #9AD8DA",
"Z. c #A3CADA",
"A. c #ACC2D6",
"S. c #BAC7D9",
"D. c #AFDEDD",
"F. c #A8D0DC",
"G. c #B8D2DD",
"H. c #A9E1DF",
"J. c #A1E0D9",
"K. c #B8E3DA",
"L. c #BBF1DC",
"P. c #95C6E1",
"I. c #93C8E7",
"U. c #9ECBE4",
"Y. c #9ECDEC",
"T. c #98C8EC",
"R. c #9AD6E5",
"E. c #8AC4F3",
"W. c #87C1F1",
"Q. c #93C5F3",
"!. c #96CDF5",
"~. c #9BCEF3",
"^. c #9CD0F5",
"/. c #9AD2F8",
"(. c #96D0F6",
"). c #A9C7E4",
"_. c #A0CEE1",
"`. c #A2C8EF",
"'. c #B4CCEB",
"]. c #AAD6E3",
"[. c #ACD9EC",
"{. c #A5D6EC",
"}. c #B3DBE3",
"|. c #B5DEED",
" X c #BED9E4",
".X c #A8CCF4",
"XX c #A1D3F3",
"oX c #A8D6F1",
"OX c #AEDBF3",
"+X c #A1D7F9",
"@X c #A3D8F9",
"#X c #ACDEF9",
"$X c #B3DEF2",
"%X c #B5E9E2",
"&X c #BEF5E5",
"*X c #AEE0FA",
"=X c #B7E4F5",
"-X c #BAE3F2",
";X c #B4E3F9",
":X c #BCE9FA",
">X c #BAE7FB",
",X c #C5C5C5",
"<X c #CCCCCC",
"1X c #C5C4C7",
"2X c #CADCCF",
"3X c #C7C7D3",
"4X c #CACAD3",
"5X c #CFCFD9",
"6X c #CAD2DE",
"7X c LightGray",
"8X c #D3D4DB",
"9X c #DDDDDD",
"0X c #D1DAD5",
"qX c #C8E1C1",
"wX c #C2F6D4",
"eX c #CAF3D9",
"rX c #C5F5D8",
"tX c #FDF7CD",
"yX c #C5D6EF",
"uX c #CCD7EB",
"iX c #D6D9E2",
"pX c #DEDEE0",
"aX c #D1DCEA",
"sX c #C9DDF1",
"dX c #C9E0E7",
"fX c #CBE6EB",
"gX c #C7EAEE",
"hX c #CBEEEE",
"jX c #D5E0E7",
"kX c #DBE2ED",
"lX c #C3F8E7",
"zX c #C6EDF7",
"xX c #CBEDF5",
"cX c #C4EEFA",
"vX c #C9EFF9",
"bX c #CDE2F0",
"nX c #D0EEF7",
"mX c #CEF5FB",
"MX c #CDF1F1",
"NX c #D3F4F5",
"BX c #D8F4F7",
"VX c #D3F8FB",
"CX c #DEFBFB",
"ZX c #D2F7FA",
"AX c #E2E2E4",
"SX c #E7E6E9",
"DX c #EBEBEB",
"FX c #ECEDF1",
"GX c #E2F2F4",
"HX c #E2FAFB",
"JX c #ECFCFC",
"KX c #EAF0F3",
"LX c #F4F4F4",
"PX c #F2FCFC",
"IX c #FEFEFE",
"UX c None",
/* pixels */
"UXUXUXUXUXX o   2 UXUXUXUXUXUXUXUXUXUXUXUXUXUXUXUXUXUXUXUXUXUXUX",
"UXUXUXUXj u.LXLXLXLXLXIXLX7Xq.q 0 G +.-.r UXUXUXUXUXUXUXUXUXUXUX",
"UXUXUX@ z IXIXIXIXIXIXIXIXIXIXLXqXqXIXIXIXDX<X0.@.8 UXUXUXUXUXUX",
"UXUXUXO S IXIXIXIXIXIXIXIXIXIXDXd.j.IXIXIXIXIXIXIXIXu 8 + UXUXUX",
"UXUXUX: ,.IXIXIXIXIXIXIXIXIXPXpXs.f.IXIXIXIXIXIXIXIX-.w + UXUXUX",
"UXUXUXj w.IXIXIXIXIXIXFXDXkXsXaX0X2XLXIXIXIXIXIXIXIX-.w + UXUXUX",
"UXUXUXk 7XIXIXIXIXLXkX.XQ.!.^.~.Y.OXaXAXIXIXIXIXIXIXu 9 O UXUXUX",
"UXUXUXl LXIXIXIXDXyXQ.!./.+X@XXXR.{.#XsX8XIXIXIXIXIXu 9 $ UXUXUX",
"UXUX# B IXIXIXLXuXE./.@X#X#X;XoXC.C.>X>XbX8XIXIXIXIXy 9 $ UXUXUX",
"UXUX, D IXIXIXiXQ.(.@X*X;X:X;X=XJ.H.cXcXcX6XFXIXIXIXy 6 $ UXUXUX",
"UXUX> 1.IXS.&.'.W.(.XX>X[.-XP.|.%X%X[.].mXnX3XIXIXLXu 6 $ UXUXUX",
"UXUXc u.IXl.7.`.E.!.T.=X$XxXc._.&X%XV.}.].VXn.} IXLXu 7 - UXUXUX",
"UXUXc <XPXl.z.Q./.@XN.$XU.-X|._.lXD.F.xXZ.VXv.. IXDXu 7 - UXUXUX",
"UX% x 9XLXl.z.Q.~.XX*.Y.x.-XmX}.&XD.fXBXZ.NXM.4 LXSX-.5 & UXUXUX",
"UX; C AXLXk.7.T.B.=.I.OXP.xXNXgXL.K.HXJXG.fX2.3 LXAX-.B = UXUXUX",
"UX1 S AXLXSXm.).^.XXY.x.U.mXMXCXrXeXJXPXJXGX5.9XLX9X-.V * UXUXUX",
"UXm @.SXLXLXAXb.XX#X$X[.zXVXhXHXwXeXPXPXPXiXm.LXLX9X-.v * UXUXUX",
"UXN ;.DXLXLXLXm.).#X;X:XmXVXhXHXwXwXPXPXFX4.DXLXLX7X;.b * UXUXUX",
"UXM 0.DXDXDXDXDXr.{.;X:XvXZXhXCXwXeXJXKXr.n.i.LXLX7X;.b ~ UXUXUX",
"= b u.DXDXDXDXDX9X8.A.=XcXmXhXCXHXGXjX6.n.e.m.SXh.<X;.n ) UXUXUX",
"< C p.DXDXDXDXDXDXDXe.9.A. XgXdXS.y.3.4Xm.5X4XR I R ;.n ( UXUXUX",
"< e ,XSXSXSXDXDXDXDXDXAX1X8.>.4.i.8XDXDXDXpXa.! T P U Z ( UXUXUX",
"^ e i +.u -.-.-.<.0.p.7XSXDX,XSXSXDXDXDXDXa.W tXg.T L h / UXUXUX",
"UX` [ { ....X.X.o.D S A t F -.u u -.<.0.p.,XY Q tXg.T L d UXUXUX",
"UXUXUXUXUXUXUXUXUXUXUX_ ] _ |  .%.#.$.O.O.D D H Q tXg.T J g UXUX",
"UXUXUXUXUXUXUXUXUXUXUXUXUXUXUXUXUXUXUXUXUXUX_ ' f Q tXg.T J p UX",
"UXUXUXUXUXUXUXUXUXUXUXUXUXUXUXUXUXUXUXUXUXUXUXUXUXK Q tXg.T J s ",
"UXUXUXUXUXUXUXUXUXUXUXUXUXUXUXUXUXUXUXUXUXUXUXUXUXUXp Q tXg.U :.",
"UXUXUXUXUXUXUXUXUXUXUXUXUXUXUXUXUXUXUXUXUXUXUXUXUXUXUXp Q E t.UX",
"UXUXUXUXUXUXUXUXUXUXUXUXUXUXUXUXUXUXUXUXUXUXUXUXUXUXUXUXa 1.>.UX",
"UXUXUXUXUXUXUXUXUXUXUXUXUXUXUXUXUXUXUXUXUXUXUXUXUXUXUXUXUXUXUXUX",
"UXUXUXUXUXUXUXUXUXUXUXUXUXUXUXUXUXUXUXUXUXUXUXUXUXUXUXUXUXUXUXUX"
};
